<svg width="65" height="84" xmlns="http://www.w3.org/2000/svg" preserveAspectRatio="xMidYMid meet">
 <g>
  <title>Layer 1</title>
  <g class="logo__item" id="logo__item--logo_0">
   <g id="svg_5" class="logo__item__inner">
    <g id="svg_6">
     <g id="svg_7">
      <polygon id="svg_8" points="59.7769775390625,0 58.239990234375,0 5.39300537109375,0 0,5.39300537109375 0,20.427001953125 5.39300537109375,25.824005126953125 18.84796142578125,25.824005126953125 18.84796142578125,58.178009033203125 26.323974609375,76.96701049804688 26.28997802734375,55.095001220703125 26.28997802734375,18.38201904296875 8.47698974609375,18.38201904296875 7.4420166015625,17.345001220703125 7.4420166015625,8.4739990234375 8.4749755859375,7.441009521484375 56.69696044921875,7.441009521484375 57.73101806640625,8.47601318359375 57.73101806640625,17.345001220703125 56.69696044921875,18.3790283203125 39.17095947265625,18.38201904296875 39.17095947265625,76.96701049804688 39.5050048828125,76.96701049804688 46.322998046875,58.178009033203125 46.322998046875,25.824005126953125 59.7769775390625,25.824005126953125 65.1719970703125,20.427001953125 65.1719970703125,5.397003173828125 " fill="#39ff14"/>
     </g>
     <polygon id="svg_9" points="55.16796875,16.46099853515625 55.16796875,9.02099609375 10.1519775390625,9.02099609375 10.1519775390625,16.46099853515625 27.99395751953125,16.46099853515625 27.99395751953125,77.75799560546875 32.45196533203125,84.0059814453125 37.66595458984375,77.75799560546875 37.66595458984375,16.46099853515625 " fill="#565656"/>
    </g>
   </g>
  </g>
 </g>
</svg>